<?xml version="1.0" encoding="UTF-8" ?>
<svg xmlns="http://www.w3.org/2000/svg" xmlns:xlink="http://www.w3.org/1999/xlink" width="364pt" height="202pt" viewBox="0.00 0.00 363.86 201.60">
<g id="graph0" class="graph" transform="scale(1 1) rotate(0) translate(4 197.6)">
<title>%0</title>
<polygon fill="#ffffff" stroke="transparent" points="-4,4 -4,-197.6 359.8567,-197.6 359.8567,4 -4,4"/>
<!-- n -->
<g id="node1" class="node">
<title>n</title>
<ellipse fill="none" stroke="#000000" cx="86.762" cy="-175.6" rx="27" ry="18"/>
<text text-anchor="middle" x="86.762" y="-171.4" font-family="Times,serif" font-size="14.00" fill="#000000">n</text>
</g>
<!-- is_greater_than_10 -->
<g id="node4" class="node">
<title>is_greater_than_10</title>
<polygon fill="none" stroke="#000000" points="185.762,-121.4016 15.5727,-84.4992 355.9514,-84.4992 185.762,-121.4016"/>
<text text-anchor="middle" x="185.762" y="-92.6" font-family="Times,serif" font-size="14.00" fill="#000000">is_greater_than_10</text>
</g>
<!-- n&#45;&gt;is_greater_than_10 -->
<g id="edge4" class="edge">
<title>n-&gt;is_greater_than_10</title>
<path fill="none" stroke="#000000" d="M104.4613,-161.5121C117.9119,-150.806 136.7952,-135.7757 152.9778,-122.895"/>
<polygon fill="#000000" stroke="#000000" points="155.5066,-125.3555 161.151,-116.3894 151.1472,-119.8787 155.5066,-125.3555"/>
</g>
<!-- add_one -->
<g id="node2" class="node">
<title>add_one</title>
<polygon fill="none" stroke="#000000" points="80.6927,-36 16.8314,-36 16.8314,0 80.6927,0 80.6927,-36"/>
<text text-anchor="middle" x="48.762" y="-13.8" font-family="Times,serif" font-size="14.00" fill="#000000">add_one</text>
</g>
<!-- add_one&#45;&gt;n -->
<g id="edge3" class="edge">
<title>add_one-&gt;n</title>
<path fill="none" stroke="#000000" d="M29.7121,-36.1141C20.905,-45.8115 11.3874,-58.5192 6.762,-72 -.3922,-92.8512 -3.5839,-102.1342 6.762,-121.6 16.7154,-140.3271 36.3805,-153.7359 53.7219,-162.5078"/>
<polygon fill="#000000" stroke="#000000" points="52.5034,-165.803 63.0405,-166.9083 55.4926,-159.4733 52.5034,-165.803"/>
</g>
<!-- print -->
<g id="node3" class="node">
<title>print</title>
<polygon fill="none" stroke="#000000" points="212.762,-36 158.762,-36 158.762,0 212.762,0 212.762,-36"/>
<text text-anchor="middle" x="185.762" y="-13.8" font-family="Times,serif" font-size="14.00" fill="#000000">print</text>
</g>
<!-- is_greater_than_10&#45;&gt;add_one -->
<g id="edge1" class="edge">
<title>is_greater_than_10-&gt;add_one</title>
<path fill="none" stroke="#000000" d="M164.3558,-84.4875C144.2482,-72.922 113.6475,-55.321 88.9813,-41.1334"/>
<polygon fill="#000000" stroke="#000000" points="90.6061,-38.0303 80.1926,-36.0783 87.1159,-44.0982 90.6061,-38.0303"/>
</g>
<!-- is_greater_than_10&#45;&gt;print -->
<g id="edge2" class="edge">
<title>is_greater_than_10-&gt;print</title>
<path fill="none" stroke="#000000" d="M185.762,-84.4875C185.762,-74.2409 185.762,-59.2568 185.762,-46.1062"/>
<polygon fill="#000000" stroke="#000000" points="189.2621,-46.0783 185.762,-36.0783 182.2621,-46.0783 189.2621,-46.0783"/>
</g>
</g>
</svg>