<?xml version="1.0" encoding="UTF-8" ?>
<svg xmlns="http://www.w3.org/2000/svg" xmlns:xlink="http://www.w3.org/1999/xlink" width="116pt" height="188pt" viewBox="0.00 0.00 115.87 188.00">
<g id="graph0" class="graph" transform="scale(1 1) rotate(0) translate(4 184)">
<title>%0</title>
<polygon fill="#ffffff" stroke="transparent" points="-4,4 -4,-184 111.8692,-184 111.8692,4 -4,4"/>
<!-- maketarget -->
<g id="node1" class="node">
<title>maketarget</title>
<ellipse fill="none" stroke="#000000" cx="53.9346" cy="-162" rx="53.8693" ry="18"/>
<text text-anchor="middle" x="53.9346" y="-157.8" font-family="Times,serif" font-size="14.00" fill="#000000">maketarget</text>
</g>
<!-- make -->
<g id="node2" class="node">
<title>make</title>
<polygon fill="none" stroke="#000000" points="80.9346,-108 26.9346,-108 26.9346,-72 80.9346,-72 80.9346,-108"/>
<text text-anchor="middle" x="53.9346" y="-85.8" font-family="Times,serif" font-size="14.00" fill="#000000">make</text>
</g>
<!-- maketarget&#45;&gt;make -->
<g id="edge1" class="edge">
<title>maketarget-&gt;make</title>
<path fill="none" stroke="#000000" d="M53.9346,-143.8314C53.9346,-136.131 53.9346,-126.9743 53.9346,-118.4166"/>
<polygon fill="#000000" stroke="#000000" points="57.4347,-118.4132 53.9346,-108.4133 50.4347,-118.4133 57.4347,-118.4132"/>
</g>
<!-- clangparse -->
<g id="node3" class="node">
<title>clangparse</title>
<polygon fill="none" stroke="#000000" points="91.7889,-36 16.0802,-36 16.0802,0 91.7889,0 91.7889,-36"/>
<text text-anchor="middle" x="53.9346" y="-13.8" font-family="Times,serif" font-size="14.00" fill="#000000">clangparse</text>
</g>
<!-- make&#45;&gt;clangparse -->
<g id="edge2" class="edge">
<title>make-&gt;clangparse</title>
<path fill="none" stroke="#000000" d="M53.9346,-71.8314C53.9346,-64.131 53.9346,-54.9743 53.9346,-46.4166"/>
<polygon fill="#000000" stroke="#000000" points="57.4347,-46.4132 53.9346,-36.4133 50.4347,-46.4133 57.4347,-46.4132"/>
</g>
</g>
</svg>