<?xml version="1.0" encoding="UTF-8" ?>
<svg xmlns="http://www.w3.org/2000/svg" xmlns:xlink="http://www.w3.org/1999/xlink" width="138pt" height="332pt" viewBox="0.00 0.00 137.81 332.00">
<g id="graph0" class="graph" transform="scale(1 1) rotate(0) translate(4 328)">
<title>%0</title>
<polygon fill="#ffffff" stroke="transparent" points="-4,4 -4,-328 133.8112,-328 133.8112,4 -4,4"/>
<!-- vals -->
<g id="node1" class="node">
<title>vals</title>
<ellipse fill="none" stroke="#000000" cx="64.9056" cy="-306" rx="27" ry="18"/>
<text text-anchor="middle" x="64.9056" y="-301.8" font-family="Times,serif" font-size="14.00" fill="#000000">vals</text>
</g>
<!-- fork_add -->
<g id="node4" class="node">
<title>fork_add</title>
<polygon fill="none" stroke="#000000" points="102.7565,-252 27.0547,-252 .0943,-216 129.7169,-216 102.7565,-252"/>
<text text-anchor="middle" x="64.9056" y="-229.8" font-family="Times,serif" font-size="14.00" fill="#000000">fork_add</text>
</g>
<!-- vals&#45;&gt;fork_add -->
<g id="edge1" class="edge">
<title>vals-&gt;fork_add</title>
<path fill="none" stroke="#000000" d="M64.9056,-287.8314C64.9056,-280.131 64.9056,-270.9743 64.9056,-262.4166"/>
<polygon fill="#000000" stroke="#000000" points="68.4057,-262.4132 64.9056,-252.4133 61.4057,-262.4133 68.4057,-262.4132"/>
</g>
<!-- add_one -->
<g id="node2" class="node">
<title>add_one</title>
<polygon fill="none" stroke="#000000" points="96.8362,-180 32.9749,-180 32.9749,-144 96.8362,-144 96.8362,-180"/>
<text text-anchor="middle" x="64.9056" y="-157.8" font-family="Times,serif" font-size="14.00" fill="#000000">add_one</text>
</g>
<!-- join_add -->
<g id="node5" class="node">
<title>join_add</title>
<polygon fill="none" stroke="#000000" points="27.9334,-72 101.8778,-72 128.2124,-108 1.5988,-108 27.9334,-72"/>
<text text-anchor="middle" x="64.9056" y="-85.8" font-family="Times,serif" font-size="14.00" fill="#000000">join_add</text>
</g>
<!-- add_one&#45;&gt;join_add -->
<g id="edge3" class="edge">
<title>add_one-&gt;join_add</title>
<path fill="none" stroke="#000000" d="M64.9056,-143.8314C64.9056,-136.131 64.9056,-126.9743 64.9056,-118.4166"/>
<polygon fill="#000000" stroke="#000000" points="68.4057,-118.4132 64.9056,-108.4133 61.4057,-118.4133 68.4057,-118.4132"/>
</g>
<!-- print -->
<g id="node3" class="node">
<title>print</title>
<polygon fill="none" stroke="#000000" points="91.9056,-36 37.9056,-36 37.9056,0 91.9056,0 91.9056,-36"/>
<text text-anchor="middle" x="64.9056" y="-13.8" font-family="Times,serif" font-size="14.00" fill="#000000">print</text>
</g>
<!-- fork_add&#45;&gt;add_one -->
<g id="edge2" class="edge">
<title>fork_add-&gt;add_one</title>
<path fill="none" stroke="#000000" d="M64.9056,-215.8314C64.9056,-208.131 64.9056,-198.9743 64.9056,-190.4166"/>
<polygon fill="#000000" stroke="#000000" points="68.4057,-190.4132 64.9056,-180.4133 61.4057,-190.4133 68.4057,-190.4132"/>
</g>
<!-- join_add&#45;&gt;print -->
<g id="edge4" class="edge">
<title>join_add-&gt;print</title>
<path fill="none" stroke="#000000" d="M64.9056,-71.8314C64.9056,-64.131 64.9056,-54.9743 64.9056,-46.4166"/>
<polygon fill="#000000" stroke="#000000" points="68.4057,-46.4132 64.9056,-36.4133 61.4057,-46.4133 68.4057,-46.4132"/>
</g>
</g>
</svg>